<?xml version="1.0" standalone="no"?>
<!DOCTYPE svg PUBLIC "-//W3C//DTD SVG 20010904//EN"
 "http://www.w3.org/TR/2001/REC-SVG-20010904/DTD/svg10.dtd">
<svg version="1.0"
    xmlns="http://www.w3.org/2000/svg" width="1367.000000pt" height="1824.000000pt" viewBox="0 0 1367.000000 1824.000000" preserveAspectRatio="xMidYMid meet">

    <g transform="translate(0.000000,1824.000000) scale(0.100000,-0.100000)" fill="#000000" stroke="none">
        <path d="M10915 18214 c-89 -16 -235 -64 -310 -102 -233 -117 -460 -328 -635
-594 -59 -89 -175 -306 -167 -314 2 -2 66 38 143 89 227 151 386 223 516 234
180 15 272 -81 298 -308 9 -78 5 -219 -6 -219 -2 0 -41 27 -86 61 -96 71 -236
141 -329 163 -140 34 -296 12 -426 -59 -90 -49 -169 -114 -273 -222 -116 -120
-164 -179 -250 -308 -434 -656 -1127 -1179 -1925 -1455 -33 -12 -136 -41 -228
-66 -504 -133 -958 -364 -1591 -808 -99 -69 -291 -230 -466 -390 -798 -732
-1280 -1380 -1531 -2061 -43 -114 -100 -297 -96 -302 2 -1 43 27 93 64 219
162 537 353 809 484 490 236 922 375 1325 425 128 16 396 19 405 5 3 -6 -15
-35 -39 -65 -222 -272 -429 -591 -550 -848 -87 -183 -199 -491 -245 -675 -187
-735 -27 -1583 426 -2261 203 -304 495 -601 775 -790 86 -58 354 -220 417
-252 168 -85 383 -141 796 -209 343 -57 447 -77 580 -116 247 -72 422 -169
558 -308 326 -336 508 -794 569 -1432 8 -90 13 -287 13 -553 0 -453 -1 -446
56 -298 89 231 194 780 255 1331 35 317 -13 746 -113 1015 -148 397 -399 661
-817 860 l-119 57 41 16 c23 9 95 30 160 47 135 33 253 73 392 132 134 56 390
180 390 188 0 4 -98 65 -217 135 -346 203 -400 242 -375 267 5 5 69 24 143 43
263 65 392 135 562 303 77 75 173 205 216 291 l23 43 -39 -6 c-87 -14 -400
-18 -488 -7 -236 32 -374 124 -375 252 0 39 26 135 39 143 4 3 28 -5 52 -17
55 -27 174 -35 274 -17 216 38 517 189 696 349 54 48 119 135 119 159 0 8 -26
12 -80 12 -131 0 -208 39 -256 130 -32 59 -24 202 16 320 99 291 348 641 570
805 l65 48 -38 -7 c-193 -35 -434 -46 -597 -26 -248 31 -416 118 -436 227 -28
152 175 360 560 574 70 39 91 55 75 57 -34 6 -111 -24 -344 -133 -256 -119
-321 -147 -430 -185 -253 -88 -419 -99 -544 -35 -86 44 -129 109 -185 284
-125 387 -86 852 101 1225 133 266 324 462 568 584 112 56 195 79 328 91 305
29 534 -46 930 -304 362 -236 522 -299 788 -312 154 -8 162 -2 105 65 -232
272 -406 588 -473 861 -36 145 -38 313 -6 417 28 89 91 164 158 190 99 37 238
1 379 -100 69 -49 220 -202 285 -288 24 -32 46 -58 50 -58 13 0 51 113 72 212
25 121 29 371 10 528 -22 174 -80 448 -117 552 -21 59 -18 68 16 68 74 0 152
-54 215 -148 61 -90 111 -224 185 -487 90 -326 158 -520 188 -538 10 -7 33
150 53 358 16 163 17 690 1 835 -30 275 -67 466 -127 670 -114 382 -286 677
-551 944 -171 173 -390 335 -594 441 l-88 45 -109 -1 c-59 0 -144 -7 -188 -15z
m-2885 -3497 c0 -7 -21 -35 -46 -62 -49 -50 -133 -208 -172 -320 -25 -75 -55
-192 -77 -306 l-17 -87 -83 -37 c-46 -20 -282 -142 -525 -271 -422 -223 -550
-288 -550 -279 0 11 150 241 221 340 216 300 529 624 734 761 168 113 461 274
497 274 10 0 18 -6 18 -13z m-1170 -2790 c0 -2 -30 -53 -66 -113 -132 -218
-255 -496 -309 -697 -30 -109 -42 -249 -26 -290 l11 -29 63 58 c165 153 322
234 512 265 98 15 292 6 405 -20 83 -19 257 -75 268 -86 3 -3 -5 -13 -18 -22
-61 -43 -290 -229 -441 -359 -214 -184 -304 -282 -402 -436 -100 -156 -202
-402 -231 -558 -41 -216 -3 -488 115 -825 22 -64 39 -118 37 -120 -4 -4 -164
183 -273 320 -280 348 -383 519 -436 719 -67 257 -79 305 -95 391 -22 122 -30
407 -15 532 61 507 328 912 804 1219 75 48 97 60 97 51z m1034 -1719 c18 -29
57 -96 85 -149 29 -53 73 -119 97 -147 l44 -51 -81 -40 c-94 -48 -188 -113
-241 -168 -114 -118 -238 -580 -256 -953 l-7 -135 -33 88 c-41 114 -86 281
-114 432 -16 91 -22 158 -22 280 0 147 2 167 27 250 66 210 168 379 328 538
59 59 115 107 123 107 9 0 31 -24 50 -52z"/>
        <path d="M12945 15008 c113 -240 123 -443 31 -634 -71 -147 -213 -304 -536
-589 -85 -76 -238 -220 -340 -320 l-185 -183 -130 9 c-341 24 -773 151 -1205
355 -262 123 -398 157 -630 156 -379 -1 -705 -159 -889 -430 -94 -139 -134
-278 -135 -462 0 -133 10 -194 52 -330 l26 -85 8 88 c31 351 309 667 588 667
76 0 120 -14 224 -73 856 -479 1314 -1196 1485 -2327 58 -384 79 -739 91
-1535 16 -1074 25 -1334 49 -1358 22 -22 41 84 131 723 141 1003 198 1298 345
1784 81 268 136 423 215 610 234 551 582 1083 1104 1686 142 165 219 289 295
476 169 418 162 786 -24 1159 -83 166 -171 288 -315 438 -98 102 -245 235
-287 260 -7 4 8 -34 32 -85z"/>
        <path d="M3339 12153 c-51 -48 -179 -186 -286 -305 -271 -304 -378 -397 -558
-484 -91 -44 -135 -55 -425 -114 -586 -119 -1206 -378 -1623 -678 -166 -119
-437 -371 -437 -405 0 -25 99 -215 151 -289 125 -179 316 -368 529 -523 502
-367 1048 -640 1615 -810 131 -40 325 -67 606 -84 611 -39 1064 140 1754 693
101 81 285 237 285 241 0 2 -73 -26 -162 -62 -384 -153 -798 -269 -1023 -288
-76 -6 -85 -5 -175 30 -227 87 -393 186 -523 313 -83 81 -141 167 -197 289
-23 50 -49 94 -57 98 -18 6 -67 -21 -212 -118 -197 -133 -359 -206 -541 -246
-111 -23 -344 -45 -410 -37 -25 3 -112 8 -195 11 -165 6 -246 22 -342 67 -181
85 -306 241 -349 436 -41 184 27 396 179 558 98 106 161 149 242 167 273 62
594 5 927 -163 148 -75 464 -312 632 -474 44 -42 80 -76 80 -76 1 0 1 39 1 88
0 78 4 94 33 155 62 126 185 258 351 374 36 26 98 70 136 99 151 113 291 163
483 171 203 9 343 -24 532 -125 86 -47 122 -74 201 -152 137 -136 230 -278
365 -554 42 -86 78 -155 79 -154 1 2 -8 86 -21 188 -49 396 -58 516 -58 810 0
288 3 331 45 550 57 299 194 569 404 797 l75 82 -82 -29 c-647 -222 -1237
-603 -1988 -1283 -58 -52 -108 -93 -111 -91 -11 7 -87 246 -104 329 -24 113
-30 257 -16 355 19 127 62 244 182 494 60 126 108 231 105 233 -2 2 -46 -36
-97 -84z"/>
        <path d="M10924 10833 c-220 -494 -355 -894 -419 -1238 -38 -208 -50 -361 -49
-640 0 -340 13 -456 134 -1167 57 -341 85 -534 100 -708 6 -69 20 -197 32
-285 27 -205 28 -453 4 -660 -50 -421 -311 -1215 -532 -1620 -178 -327 -309
-518 -515 -750 -60 -69 -105 -125 -99 -125 6 0 38 9 72 21 69 23 148 67 296
163 56 37 146 92 200 123 396 227 736 574 961 981 175 315 266 620 307 1022
24 230 19 233 -82 42 -108 -204 -174 -294 -251 -339 -24 -14 -46 -24 -48 -22
-2 3 41 114 96 249 225 551 265 727 256 1110 l-5 205 -51 184 c-179 640 -318
1307 -380 1831 -41 342 -46 424 -46 785 0 350 8 479 50 848 3 26 3 47 0 47 -3
0 -17 -26 -31 -57z"/>
        <path d="M5059 8782 c-63 -54 -263 -199 -394 -284 -375 -246 -821 -462 -1163
-563 -244 -72 -506 -111 -658 -98 -41 3 -74 4 -74 1 0 -3 28 -24 63 -46 182
-118 422 -204 696 -248 132 -21 480 -30 622 -15 160 17 340 55 481 102 130 43
253 101 261 121 2 7 7 10 11 7 12 -11 -40 -135 -89 -214 -130 -209 -367 -459
-633 -669 -170 -134 -374 -252 -477 -277 -27 -6 -57 -14 -65 -16 -8 -3 35 -17
95 -33 260 -66 459 -177 654 -365 334 -322 555 -780 710 -1470 17 -76 30 -139
28 -141 -1 -2 -53 63 -114 144 -248 327 -480 564 -698 712 -39 27 -47 29 -35
13 8 -12 86 -120 172 -240 323 -450 467 -706 539 -963 20 -73 23 -107 24 -245
0 -190 -15 -255 -100 -432 -92 -193 -220 -369 -439 -606 l-119 -129 44 7 c320
51 669 218 926 445 321 282 585 728 737 1246 58 198 115 483 132 664 l7 74
-45 -54 c-92 -113 -260 -230 -330 -230 -48 0 -68 18 -103 93 -91 200 -538 965
-824 1410 -45 69 -81 129 -81 132 0 7 535 -266 770 -393 798 -432 1307 -840
1478 -1186 40 -81 76 -195 70 -223 -2 -10 -22 1 -68 38 -184 148 -591 361
-626 327 -3 -4 21 -40 54 -80 173 -210 289 -455 343 -724 31 -156 37 -417 14
-590 -54 -400 -217 -814 -477 -1207 -183 -276 -359 -485 -626 -740 -40 -38
-72 -71 -72 -73 0 -9 157 53 265 106 646 316 1271 1101 1561 1964 111 329 170
696 144 894 -15 114 -15 281 0 327 24 73 81 64 165 -27 113 -122 252 -356 368
-619 72 -164 109 -277 146 -445 139 -637 64 -1139 -239 -1599 -105 -159 -205
-279 -375 -454 -239 -244 -463 -439 -948 -825 -236 -188 -290 -243 -184 -190
484 245 940 543 1257 821 616 540 911 1110 962 1855 18 264 -13 636 -78 938
-173 809 -638 1543 -1334 2106 -216 175 -479 341 -777 493 -519 264 -963 669
-1249 1141 -72 119 -191 362 -228 466 -16 43 -32 83 -36 87 -4 5 -23 -5 -41
-21z"/>
        <path d="M9376 7931 l-49 -6 79 -52 c208 -137 400 -368 490 -593 83 -205 127
-406 159 -730 36 -366 46 -467 52 -505 l6 -40 9 30 c14 50 57 303 73 435 21
168 30 488 17 626 -20 201 -53 327 -125 474 -54 111 -179 241 -277 288 -118
58 -303 88 -434 73z"/>
        <path d="M10885 3923 c-281 -234 -636 -438 -1129 -647 -186 -78 -221 -96 -227
-117 -4 -13 -14 -73 -23 -134 -65 -430 -229 -855 -469 -1215 -195 -293 -383
-504 -982 -1100 -390 -388 -675 -681 -675 -693 0 -10 184 78 323 154 884 483
1738 1190 2329 1927 454 566 763 1162 913 1762 19 74 33 135 32 136 -1 1 -43
-31 -92 -73z"/>
    </g>
</svg>
